<?xml version="1.0" standalone="no"?>
<!DOCTYPE svg PUBLIC "-//W3C//DTD SVG 20010904//EN"
 "http://www.w3.org/TR/2001/REC-SVG-20010904/DTD/svg10.dtd">
<svg version="1.0" xmlns="http://www.w3.org/2000/svg"
 width="512.000000pt" height="512.000000pt" viewBox="0 0 512.000000 512.000000"
 preserveAspectRatio="xMidYMid meet">
<metadata>
Created by potrace 1.14, written by Peter Selinger 2001-2017
</metadata>
<g transform="translate(0.000000,512.000000) scale(0.100000,-0.100000)"
fill="#000000" stroke="none">
<path d="M647 3596 l-638 -634 207 -206 c178 -179 208 -205 222 -194 8 7 201
198 428 425 l412 412 426 -426 427 -426 35 34 c20 19 212 211 427 426 l392
393 427 -427 c235 -235 429 -425 432 -423 3 3 291 290 640 638 l636 634 -207
203 c-114 112 -209 203 -210 202 -2 -1 -194 -193 -428 -426 l-425 -424 -381
379 c-210 208 -403 401 -429 428 l-48 48 -427 -427 -428 -427 -426 426 -427
427 -637 -635z"/>
<path d="M634 1936 l-631 -632 208 -208 208 -207 427 427 426 426 427 -426
427 -427 427 427 427 427 427 -427 427 -427 635 635 635 635 -209 204 -208
205 -424 -424 c-233 -233 -427 -424 -430 -424 -3 0 -193 186 -421 413 -228
226 -420 417 -426 424 -10 8 -110 -86 -436 -413 -233 -233 -427 -424 -430
-424 -3 0 -194 191 -424 425 -231 234 -422 425 -425 424 -3 0 -290 -285 -637
-633z"/>
</g>
</svg>
